<svg width="16" height="16" viewBox="0 0 16 16" fill="none" xmlns="http://www.w3.org/2000/svg">
<g clip-path="url(#clip0)">
<path d="M10.6093 8.08196L16.0033 11.492V4.52795L10.6093 8.08196Z" fill="#FBE673"/>
<path d="M0 4.52795V11.492L5.394 8.08196L0 4.52795Z" fill="#FBE673"/>
<path d="M15.0011 2.5H1.0011C0.502098 2.5 0.106097 2.872 0.0310974 3.351L8.0011 8.602L15.9711 3.351C15.8961 2.872 15.5001 2.5 15.0011 2.5Z" fill="#FBE673"/>
<path d="M9.6894 8.68594L8.2744 9.61794C8.1904 9.67294 8.0954 9.69994 7.9994 9.69994C7.9034 9.69994 7.8084 9.67294 7.7244 9.61794L6.3094 8.68494L0.0314026 12.6559C0.108403 13.1309 0.502402 13.4999 0.999402 13.4999H14.9994C15.4964 13.4999 15.8904 13.1309 15.9674 12.6559L9.6894 8.68594Z" fill="#FBE673"/>
</g>
<defs>
<clipPath id="clip0">
<rect width="16" height="16" fill="white"/>
</clipPath>
</defs>
</svg>
