<svg width="17" height="13" viewBox="0 0 17 13" fill="none" xmlns="http://www.w3.org/2000/svg">
<path d="M16.8962 6.24928L11.5837 0.936776C11.4454 0.798418 11.2213 0.798418 11.0829 0.936776C10.9446 1.07513 10.9446 1.29925 11.0829 1.43758L15.7909 6.14552H0.354178C0.158412 6.14552 0 6.30393 0 6.4997C0 6.69546 0.158412 6.85387 0.354178 6.85387H15.7909L11.0829 11.5618C10.9446 11.7001 10.9446 11.9243 11.0829 12.0626C11.1521 12.1317 11.2427 12.1663 11.3334 12.1663C11.424 12.1663 11.5146 12.1317 11.5838 12.0626L16.8963 6.75008C17.0346 6.61176 17.0346 6.38764 16.8962 6.24928Z" fill="#757575"/>
</svg>
