<svg width="51" height="51" viewBox="0 0 51 51" fill="none" xmlns="http://www.w3.org/2000/svg">
<path d="M25.5298 7.3558C26.3423 7.3558 27.0009 6.69714 27.0009 5.88464C27.0009 5.07214 26.3423 4.41348 25.5298 4.41348C24.7173 4.41348 24.0586 5.07214 24.0586 5.88464C24.0586 6.69714 24.7173 7.3558 25.5298 7.3558Z" fill="#8B86BC"/>
<path d="M45.1151 11.7692C45.1151 9.60251 43.3588 7.84607 41.1921 7.84607H35.7459C35.0194 7.03901 34.0862 6.42149 33.014 6.11304C32.1108 5.85338 31.4157 5.15826 31.1559 4.25509C30.4491 1.79764 28.1844 0 25.4996 0C22.815 0 20.5504 1.79764 19.8438 4.25484C19.5836 5.15912 18.8868 5.85338 17.9825 6.1139C16.9115 6.4226 15.9791 7.03951 15.2532 7.84607H9.80737C7.6406 7.84607 5.88428 9.60251 5.88428 11.7692V47.0769C5.88428 49.2436 7.6406 51 9.80737 51C18.8141 51 29.8836 51 41.1921 51C43.3589 51 45.1152 49.2436 45.1152 47.0769C45.1152 35.9354 45.1151 25.2667 45.1151 11.7692ZM15.6921 11.7377C15.7056 10.0132 16.8708 8.47585 18.5256 7.99895C20.0838 7.55 21.2812 6.35296 21.7287 4.79721C22.209 3.12744 23.7596 1.96155 25.4996 1.96155C27.2398 1.96155 28.7904 3.12744 29.2705 4.79721C29.7182 6.35394 30.9149 7.55061 32.4716 7.99821C34.1411 8.47842 35.3073 10.0292 35.3073 11.769V13.7306H15.6921V11.7377ZM41.1921 49.0385C30.7156 49.0385 20.2563 49.0385 9.80737 49.0385C8.7257 49.0385 7.84583 48.1585 7.84583 47.0769V11.7692C7.84583 10.6876 8.7257 9.80762 9.80737 9.80762H14.0666C13.8545 10.4074 13.7359 11.0511 13.7307 11.7222V15.6923H37.269V11.7692C37.269 11.0808 37.1474 10.4217 36.9302 9.80762H41.1921C42.2737 9.80762 43.1536 10.6876 43.1536 11.7692C43.1536 17.3771 43.1534 43.6755 43.1538 47.0769C43.1537 48.1585 42.2738 49.0385 41.1921 49.0385Z" fill="#8B86BC"/>
<path d="M33.6541 23.846L21.8643 35.6357L16.6677 30.439L15.2808 31.8261L21.8643 38.4098L35.041 25.2331L33.6541 23.846Z" fill="#8B86BC"/>
</svg>
