<svg width="51" height="51" viewBox="0 0 51 51" fill="none" xmlns="http://www.w3.org/2000/svg">
<g clip-path="url(#clip0)">
<path d="M20.3823 2.63809C20.9325 2.63809 21.3784 2.19218 21.3784 1.642V0.996094C21.3784 0.445908 20.9325 0 20.3823 0C19.8325 0 19.3862 0.445908 19.3862 0.996094V1.642C19.3862 2.19218 19.8325 2.63809 20.3823 2.63809Z" fill="#8B86BC"/>
<path d="M11.4448 4.30383C11.6293 4.62328 11.9643 4.80188 12.3086 4.80188C12.4775 4.80188 12.6487 4.75908 12.8055 4.66842C13.2818 4.39332 13.4452 3.784 13.1701 3.30774L12.8471 2.74821C12.5724 2.27196 11.9631 2.10853 11.4865 2.38363C11.0102 2.65872 10.8468 3.26805 11.1219 3.74431L11.4448 4.30383Z" fill="#8B86BC"/>
<path d="M6.89383 8.85471L6.33469 8.53175C5.85844 8.25666 5.24911 8.41969 4.97401 8.89634C4.69892 9.3726 4.86195 9.98154 5.3386 10.2566L5.89774 10.5796C6.05454 10.6702 6.22575 10.7134 6.395 10.7134C6.73897 10.7134 7.07398 10.5348 7.25842 10.215C7.53351 9.73874 7.37048 9.12941 6.89383 8.85471Z" fill="#8B86BC"/>
<path d="M4.23184 16.7962H3.58594C3.03614 16.7962 2.58984 17.2421 2.58984 17.7923C2.58984 18.3425 3.03614 18.7884 3.58594 18.7884H4.23184C4.78203 18.7884 5.22794 18.3425 5.22794 17.7923C5.22794 17.2421 4.78203 16.7962 4.23184 16.7962Z" fill="#8B86BC"/>
<path d="M35.5366 17.7923C35.5366 18.3425 35.9829 18.7884 36.5327 18.7884H37.1786C37.7288 18.7884 38.1747 18.3425 38.1747 17.7923C38.1747 17.2421 37.7288 16.7962 37.1786 16.7962H36.5327C35.9825 16.7962 35.5366 17.2421 35.5366 17.7923Z" fill="#8B86BC"/>
<path d="M34.37 10.7134C34.5388 10.7134 34.71 10.6702 34.8668 10.5796L35.4264 10.2566C35.9026 9.98193 36.066 9.3726 35.791 8.89634C35.5162 8.41969 34.9069 8.25666 34.4303 8.53175L33.8707 8.85471C33.3945 9.12941 33.2311 9.73874 33.5062 10.215C33.6906 10.5348 34.0256 10.7134 34.37 10.7134Z" fill="#8B86BC"/>
<path d="M27.9597 4.66842C28.1165 4.75908 28.2877 4.80188 28.4566 4.80188C28.8009 4.80188 29.1356 4.62328 29.3204 4.30383L29.6433 3.74431C29.9184 3.26805 29.755 2.65872 29.2787 2.38363C28.8021 2.10853 28.1928 2.27196 27.9181 2.74821L27.5951 3.30774C27.32 3.784 27.483 4.39332 27.9597 4.66842Z" fill="#8B86BC"/>
<path d="M47.4137 32.7383H45.0406C44.79 31.8628 44.4414 31.0216 43.9982 30.2243L45.6768 28.5454C45.8636 28.3586 45.9686 28.1053 45.9686 27.8411C45.9686 27.5769 45.8636 27.3236 45.6768 27.1368L42.3901 23.8501C42.001 23.461 41.3703 23.461 40.9812 23.8501L39.3026 25.5287C38.5053 25.0859 37.6641 24.7373 36.7886 24.4867V22.1136C36.7886 21.5634 36.3427 21.1175 35.7926 21.1175H31.6712C31.9825 20.0529 32.1448 18.9358 32.1448 17.7923C32.1448 11.3064 26.8682 6.02945 20.382 6.02945C18.9726 6.02945 17.5929 6.27692 16.2809 6.76523C15.7649 6.95706 15.5027 7.53059 15.6945 8.04614C15.8863 8.5617 16.4598 8.82434 16.9754 8.63212C18.0645 8.22707 19.2104 8.02163 20.382 8.02163C25.7694 8.02163 30.1526 12.4048 30.1526 17.7923C30.1526 20.5342 29.0296 23.0933 27.0445 24.9388L25.9554 23.8497C25.7686 23.663 25.5153 23.5583 25.2511 23.5583C24.9869 23.5583 24.7336 23.663 24.5469 23.8497L21.2598 27.1368C20.871 27.5259 20.871 28.1567 21.2598 28.5457L21.9924 29.278H16.8921V27.582C16.8921 27.1929 16.6653 26.8392 16.3116 26.6769C12.8486 25.0875 10.6113 21.6 10.6113 17.7923C10.6113 16.6203 10.8168 15.474 11.2222 14.3849C11.414 13.8694 11.1518 13.2958 10.6362 13.104C10.1211 12.9122 9.54714 13.1744 9.35531 13.69C8.867 15.002 8.61914 16.3822 8.61914 17.7923C8.61914 22.1599 11.0642 26.1769 14.9 28.2014V33.8635C14.9 36.0631 16.4571 37.9055 18.5271 38.3471V38.3829C18.5271 38.9331 18.973 39.379 19.5232 39.379H21.8963C22.1469 40.2545 22.4955 41.0953 22.9387 41.8926L21.2598 43.5715C20.8707 43.9606 20.8707 44.5914 21.2598 44.9801L24.5469 48.2672C24.9359 48.6559 25.5663 48.6559 25.9554 48.2672L27.6343 46.5882C28.4316 47.0314 29.2728 47.38 30.1479 47.6306V50.0041C30.1479 50.5539 30.5942 51.0002 31.144 51.0002H35.7926C36.3427 51.0002 36.7886 50.5539 36.7886 50.0041V47.6306C37.6641 47.38 38.505 47.0314 39.3022 46.5882L40.9812 48.2672C41.3703 48.6559 42.001 48.6559 42.3901 48.2672L45.6768 44.9801C46.0659 44.5914 46.0659 43.9606 45.6768 43.5715L43.9978 41.8922C44.4406 41.0953 44.7893 40.2541 45.0398 39.379H47.4137C47.9635 39.379 48.4098 38.9331 48.4098 38.3829V33.7344C48.4098 33.1842 47.9635 32.7383 47.4137 32.7383ZM30.1483 24.3587V24.4867C30.1106 24.4972 30.0736 24.5093 30.0362 24.5205C30.074 24.4664 30.1113 24.4128 30.1483 24.3587ZM16.8921 33.8632V31.2702H22.4243C22.2173 31.7472 22.0403 32.2367 21.8971 32.7383H19.5232C18.973 32.7383 18.5271 33.1842 18.5271 33.7344V36.2721C17.5703 35.8904 16.8921 34.955 16.8921 33.8632ZM46.4176 37.3864H44.2624C43.7928 37.3864 43.387 37.7148 43.2885 38.174C43.034 39.3615 42.5695 40.4825 41.9076 41.5058C41.6524 41.9 41.7076 42.419 42.0395 42.7513L43.564 44.2758L41.6858 46.154L40.1613 44.6295C39.8291 44.2972 39.31 44.2423 38.9158 44.4976C37.8925 45.1594 36.7715 45.6244 35.584 45.8789C35.1245 45.9777 34.7965 46.3832 34.7965 46.8532V49.0076H32.1405V46.8532C32.1405 46.3835 31.8125 45.9777 31.3533 45.8793C30.1654 45.6244 29.0444 45.1598 28.0211 44.4976C27.6269 44.2427 27.1079 44.2976 26.7756 44.6295L25.2511 46.154L23.3729 44.2758L24.8974 42.7513C25.2297 42.4194 25.2846 41.9004 25.0293 41.5058C24.3675 40.4825 23.9025 39.3615 23.6476 38.174C23.5496 37.7144 23.1434 37.3864 22.6741 37.3864H20.5197V34.7305H22.6745C23.1442 34.7305 23.5504 34.4021 23.6488 33.9429C23.9033 32.755 24.3679 31.634 25.0297 30.6111C25.285 30.2169 25.2297 29.6979 24.8978 29.3656L23.3729 27.8411L25.2515 25.9629L26.2803 26.9921C26.2815 26.9929 26.2822 26.994 26.2834 26.9952L26.776 27.4874C27.1083 27.8197 27.6269 27.8746 28.0215 27.6193C29.0448 26.9575 30.1658 26.4925 31.3533 26.2376C31.8125 26.1396 32.1405 25.7334 32.1405 25.2641V23.1097H34.7965V25.2641C34.7965 25.7337 35.1245 26.1396 35.584 26.238C36.7719 26.4925 37.8929 26.9575 38.9162 27.6193C39.3104 27.8746 39.8294 27.8193 40.1613 27.4874L41.6858 25.9629L43.564 27.8411L42.0395 29.3656C41.7076 29.6975 41.6528 30.2165 41.9076 30.6111C42.5699 31.634 43.0348 32.7554 43.2893 33.9429C43.3877 34.4021 43.7936 34.7305 44.2632 34.7305H46.4176V37.3864Z" fill="#8B86BC"/>
<path d="M33.4688 31.078C30.7225 31.078 28.4883 33.3122 28.4883 36.0585C28.4883 38.8047 30.7225 41.0389 33.4688 41.0389C36.215 41.0389 38.4492 38.8047 38.4492 36.0585C38.4492 33.3122 36.215 31.078 33.4688 31.078ZM33.4688 39.0468C31.8209 39.0468 30.4805 37.7063 30.4805 36.0585C30.4805 34.4106 31.8209 33.0702 33.4688 33.0702C35.1166 33.0702 36.457 34.4106 36.457 36.0585C36.457 37.7063 35.1166 39.0468 33.4688 39.0468Z" fill="#8B86BC"/>
<path d="M33.4691 35.0623H33.4684C32.9186 35.0623 32.4727 35.5083 32.4727 36.0584C32.4727 36.6086 32.919 37.0545 33.4691 37.0545C34.0193 37.0545 34.4652 36.6086 34.4652 36.0584C34.4652 35.5083 34.0193 35.0623 33.4691 35.0623Z" fill="#8B86BC"/>
<path d="M12.065 9.47415L12.0646 9.47454C11.6755 9.86364 11.6759 10.494 12.065 10.8831C12.2591 11.0776 12.514 11.1749 12.7688 11.1749C13.0241 11.1749 13.2793 11.0776 13.4735 10.8831C13.8626 10.494 13.8626 9.86325 13.4735 9.47415C13.0848 9.08544 12.4541 9.08544 12.065 9.47415Z" fill="#8B86BC"/>
</g>
<defs>
<clipPath id="clip0">
<rect width="51" height="51" fill="white"/>
</clipPath>
</defs>
</svg>
