<svg width="51" height="51" viewBox="0 0 51 51" fill="none" xmlns="http://www.w3.org/2000/svg">
<path d="M49.5418 6.97211C48.7915 6.22056 47.5742 6.21926 46.824 6.96892L23.7651 29.9669L15.4455 20.9311C14.7266 20.1507 13.5112 20.1001 12.7296 20.8189C11.9485 21.5378 11.8985 22.7538 12.6174 23.5349L22.2921 34.0418C22.6464 34.4268 23.1422 34.6505 23.6651 34.6613C23.6791 34.6619 23.6927 34.6619 23.7061 34.6619C24.2142 34.6619 24.703 34.4601 25.0631 34.1013L49.538 9.69055C50.2902 8.94099 50.2915 7.72367 49.5418 6.97211Z" fill="#F19264"/>
<path d="M49.0778 23.5778C48.0162 23.5778 47.1558 24.4383 47.1558 25.5C47.1558 37.4415 37.4415 47.1558 25.5 47.1558C13.5592 47.1558 3.84422 37.4415 3.84422 25.5C3.84422 13.5592 13.5592 3.84422 25.5 3.84422C26.5616 3.84422 27.4222 2.9838 27.4222 1.92216C27.4222 0.860426 26.5616 0 25.5 0C11.4391 0 0 11.4391 0 25.5C0 39.5603 11.4391 51 25.5 51C39.5603 51 51 39.5603 51 25.5C51 24.4384 50.1396 23.5778 49.0778 23.5778Z" fill="#F19264"/>
</svg>
