<svg width="12" height="10" viewBox="0 0 12 10" fill="none" xmlns="http://www.w3.org/2000/svg">
<path d="M0.499999 5.49993L10.4748 5.49993L6.65525 9.13789C6.45525 9.32839 6.4475 9.64488 6.638 9.84488C6.82825 10.0446 7.14475 10.0526 7.345 9.86213L11.707 5.70718C11.8958 5.51818 12 5.26719 12 4.99994C12 4.73294 11.8958 4.4817 11.6983 4.28445L7.34475 0.137999C7.248 0.0457502 7.124 1.48108e-06 7 1.47023e-06C6.868 1.45869e-06 6.736 0.0520005 6.63775 0.155249C6.44725 0.355247 6.455 0.671494 6.655 0.861991L10.4905 4.49995L0.5 4.49995C0.224 4.49995 -1.4461e-06 4.72394 -1.47023e-06 4.99994C-1.49436e-06 5.27594 0.223999 5.49993 0.499999 5.49993Z" fill="#3D3D3D"/>
</svg>
