<svg width="17" height="13" viewBox="0 0 17 13" fill="none" xmlns="http://www.w3.org/2000/svg">
<path d="M16.8962 6.24977L11.5837 0.937264C11.4454 0.798907 11.2213 0.798907 11.0829 0.937264C10.9446 1.07562 10.9446 1.29974 11.0829 1.43807L15.7909 6.14601H0.354178C0.158412 6.14601 0 6.30442 0 6.50019C0 6.69595 0.158412 6.85436 0.354178 6.85436H15.7909L11.0829 11.5623C10.9446 11.7006 10.9446 11.9247 11.0829 12.0631C11.1521 12.1322 11.2427 12.1668 11.3334 12.1668C11.424 12.1668 11.5146 12.1322 11.5838 12.0631L16.8963 6.75057C17.0346 6.61225 17.0346 6.38812 16.8962 6.24977Z" fill="white"/>
</svg>
