<svg width="27" height="27" viewBox="0 0 27 27" fill="none" xmlns="http://www.w3.org/2000/svg">
<g clip-path="url(#clip0)">
<path d="M26.8893 11.4774C26.7835 11.3345 26.6159 11.2501 26.4381 11.2501H0.563019C0.385251 11.2501 0.21766 11.3345 0.110767 11.4762C0.00503457 11.6191 -0.0276081 11.8036 0.0241245 11.9735L2.91762 21.6204C3.27764 22.8196 4.36102 23.6251 5.61199 23.6251H21.3891C22.6401 23.6251 23.7235 22.8196 24.0823 21.6215L26.9758 11.9746C27.0277 11.8047 26.995 11.6191 26.8893 11.4774ZM23.0057 21.2975C22.7886 22.0164 22.1395 22.5001 21.388 22.5001H5.61204C4.86052 22.5001 4.21141 22.0164 3.99541 21.2975L1.31902 12.3751H25.6821L23.0057 21.2975Z" fill="#757575"/>
<path d="M12.0919 3.44941C11.823 3.29526 11.4788 3.38755 11.3235 3.65866L6.8235 11.5337C6.67051 11.8037 6.76385 12.1468 7.03386 12.3009C7.12161 12.3515 7.21721 12.3752 7.31287 12.3752C7.50752 12.3752 7.69763 12.2739 7.80225 12.0917L12.3023 4.21664C12.4553 3.94664 12.3619 3.6035 12.0919 3.44941Z" fill="#757575"/>
<path d="M20.177 11.5337L15.677 3.65866C15.5195 3.38755 15.1742 3.29526 14.9086 3.44941C14.6375 3.60355 14.5441 3.94664 14.6983 4.21664L19.1983 12.0917C19.3029 12.2739 19.493 12.3752 19.6877 12.3752C19.7833 12.3752 19.8789 12.3515 19.9667 12.3009C20.2378 12.1468 20.3312 11.8037 20.177 11.5337Z" fill="#757575"/>
</g>
<defs>
<clipPath id="clip0">
<rect width="27" height="27" fill="white"/>
</clipPath>
</defs>
</svg>
