<svg width="14" height="14" viewBox="0 0 14 14" fill="none" xmlns="http://www.w3.org/2000/svg">
<g clip-path="url(#clip0)">
<path d="M9.2832 7.07167L14.003 10.0554V3.96191L9.2832 7.07167Z" fill="white"/>
<path d="M0 3.96191V10.0554L4.71975 7.07167L0 3.96191Z" fill="white"/>
<path d="M13.1261 2.1875H0.876094C0.439469 2.1875 0.0929688 2.513 0.0273438 2.93212L7.0011 7.52675L13.9749 2.93212C13.9092 2.513 13.5627 2.1875 13.1261 2.1875Z" fill="white"/>
<path d="M8.47809 7.60024L7.23997 8.41574C7.16647 8.46387 7.08334 8.48749 6.99934 8.48749C6.91534 8.48749 6.83222 8.46387 6.75872 8.41574L5.52059 7.59937L0.0273438 11.074C0.0947187 11.4896 0.439469 11.8125 0.874343 11.8125H13.1243C13.5592 11.8125 13.904 11.4896 13.9713 11.074L8.47809 7.60024Z" fill="white"/>
</g>
<defs>
<clipPath id="clip0">
<rect width="14" height="14" fill="white"/>
</clipPath>
</defs>
</svg>
