<svg width="14" height="14" viewBox="0 0 14 14" fill="none" xmlns="http://www.w3.org/2000/svg">
<g clip-path="url(#clip0)">
<path d="M9.2832 7.07167L14.003 10.0554V3.96191L9.2832 7.07167Z" fill="#F19264"/>
<path d="M0 3.96191V10.0554L4.71975 7.07167L0 3.96191Z" fill="#F19264"/>
<path d="M13.126 2.1875H0.875972C0.439347 2.1875 0.0928467 2.513 0.0272217 2.93212L7.00098 7.52675L13.9747 2.93212C13.9091 2.513 13.5626 2.1875 13.126 2.1875Z" fill="#F19264"/>
<path d="M8.47821 7.6L7.24009 8.4155C7.16659 8.46362 7.08346 8.48725 6.99946 8.48725C6.91546 8.48725 6.83234 8.46362 6.75884 8.4155L5.52071 7.59912L0.0274658 11.0738C0.0948408 11.4894 0.439591 11.8123 0.874465 11.8123H13.1245C13.5593 11.8123 13.9041 11.4894 13.9715 11.0738L8.47821 7.6Z" fill="#F19264"/>
</g>
<defs>
<clipPath id="clip0">
<rect width="14" height="14" fill="white"/>
</clipPath>
</defs>
</svg>
