<svg width="11" height="11" viewBox="0 0 11 11" fill="none" xmlns="http://www.w3.org/2000/svg">
<g clip-path="url(#clip0)">
<path d="M0.0671384 5.66198L3.50464 9.09948C3.59416 9.18901 3.73918 9.18901 3.82869 9.09948C3.91821 9.00996 3.91821 8.86494 3.82869 8.77543L0.782374 5.72912L10.7708 5.72912C10.8975 5.72912 11 5.62662 11 5.49994C11 5.37327 10.8975 5.27077 10.7708 5.27077L0.782374 5.27077L3.82869 2.22448C3.91821 2.13495 3.91821 1.98993 3.82869 1.90043C3.78393 1.85568 3.72528 1.83329 3.66665 1.83329C3.60802 1.83329 3.54939 1.85568 3.50462 1.90043L0.0671164 5.33793C-0.0223869 5.42744 -0.0223869 5.57246 0.0671384 5.66198Z" fill="#F19264"/>
</g>
<defs>
<clipPath id="clip0">
<rect width="11" height="11" fill="white" transform="translate(11 11) rotate(180)"/>
</clipPath>
</defs>
</svg>
