<svg width="11" height="11" viewBox="0 0 11 11" fill="none" xmlns="http://www.w3.org/2000/svg">
<g clip-path="url(#clip0)">
<path d="M10.9329 5.33802L7.49536 1.90052C7.40584 1.81099 7.26082 1.81099 7.17131 1.90052C7.08179 1.99004 7.08179 2.13506 7.17131 2.22457L10.2176 5.27088H0.229174C0.102502 5.27088 0 5.37338 0 5.50006C0 5.62673 0.102502 5.72923 0.229174 5.72923H10.2176L7.17131 8.77552C7.08179 8.86505 7.08179 9.01007 7.17131 9.09957C7.21606 9.14432 7.27472 9.16671 7.33335 9.16671C7.39198 9.16671 7.45061 9.14432 7.49538 9.09957L10.9329 5.66207C11.0224 5.57256 11.0224 5.42755 10.9329 5.33802Z" fill="#F19264"/>
</g>
<defs>
<clipPath id="clip0">
<rect width="11" height="11" fill="white"/>
</clipPath>
</defs>
</svg>
