<svg width="7" height="7" viewBox="0 0 7 7" fill="none" xmlns="http://www.w3.org/2000/svg">
<g clip-path="url(#clip0)">
<path d="M6.95728 3.39692L4.76978 1.20942C4.7128 1.15244 4.62052 1.15244 4.56356 1.20942C4.50659 1.26639 4.50659 1.35867 4.56356 1.41563L6.50213 3.35419H0.145838C0.0652285 3.35419 0 3.41942 0 3.50003C0 3.58064 0.0652285 3.64587 0.145838 3.64587H6.50213L4.56356 5.58442C4.50659 5.64139 4.50659 5.73367 4.56356 5.79063C4.59204 5.81911 4.62937 5.83335 4.66668 5.83335C4.70399 5.83335 4.7413 5.81911 4.76979 5.79063L6.95729 3.60313C7.01425 3.54617 7.01425 3.45389 6.95728 3.39692Z" fill="#434343"/>
</g>
<defs>
<clipPath id="clip0">
<rect width="7" height="7" fill="white"/>
</clipPath>
</defs>
</svg>
