<svg width="14" height="14" viewBox="0 0 14 14" fill="none" xmlns="http://www.w3.org/2000/svg">
<g clip-path="url(#clip0)">
<path d="M9.2832 7.07167L14.003 10.0554V3.96191L9.2832 7.07167Z" fill="#8AC99E"/>
<path d="M0 3.96191V10.0554L4.71975 7.07167L0 3.96191Z" fill="#8AC99E"/>
<path d="M13.1259 2.1875H0.87585C0.439225 2.1875 0.0927247 2.513 0.0270996 2.93212L7.00085 7.52675L13.9746 2.93212C13.909 2.513 13.5625 2.1875 13.1259 2.1875Z" fill="#8AC99E"/>
<path d="M8.47833 7.60024L7.24021 8.41574C7.16671 8.46387 7.08358 8.48749 6.99958 8.48749C6.91558 8.48749 6.83246 8.46387 6.75896 8.41574L5.52084 7.59937L0.0275879 11.074C0.0949629 11.4896 0.439713 11.8125 0.874587 11.8125H13.1246C13.5595 11.8125 13.9042 11.4896 13.9716 11.074L8.47833 7.60024Z" fill="#8AC99E"/>
</g>
<defs>
<clipPath id="clip0">
<rect width="14" height="14" fill="white"/>
</clipPath>
</defs>
</svg>
