<svg width="51" height="51" viewBox="0 0 51 51" fill="none" xmlns="http://www.w3.org/2000/svg">
<path d="M19.5498 30.6C14.8553 30.6 11.0498 34.4055 11.0498 39.1C11.0498 43.7945 14.8553 47.6 19.5498 47.6C24.2443 47.6 28.0498 43.7945 28.0498 39.1C28.0448 34.4076 24.2422 30.605 19.5498 30.6ZM19.5498 45.9C15.7941 45.9 12.7498 42.8557 12.7498 39.1C12.7498 35.3443 15.7941 32.3 19.5498 32.3C23.3055 32.3 26.3498 35.3443 26.3498 39.1C26.3457 42.8536 23.3034 45.8959 19.5498 45.9Z" fill="#F19264"/>
<path d="M19.5499 36.55C20.5879 36.55 21.2499 37.053 21.2499 37.4H22.9499C22.9499 36.1922 21.8799 35.214 20.3999 34.9351V34H18.6999V34.9351C17.2199 35.2119 16.1499 36.1906 16.1499 37.4C16.1499 38.8306 17.6432 39.95 19.5499 39.95C20.5879 39.95 21.2499 40.453 21.2499 40.8C21.2499 41.147 20.5879 41.65 19.5499 41.65C18.5119 41.65 17.8499 41.147 17.8499 40.8H16.1499C16.1499 42.0078 17.2199 42.986 18.6999 43.2649V44.2H20.3999V43.2649C21.8799 42.9881 22.9499 42.0094 22.9499 40.8C22.9499 39.3694 21.4566 38.25 19.5499 38.25C18.5119 38.25 17.8499 37.747 17.8499 37.4C17.8499 37.053 18.5119 36.55 19.5499 36.55Z" fill="#F19264"/>
<path d="M43.35 49.3H7.65V28.9H21.25C22.6582 28.9 23.8 27.7582 23.8 26.35V5.1H33.15V15.3H43.35V27.2H45.05V14.098L34.352 3.4H23.8V2.55C23.8 1.14177 22.6582 0 21.25 0H2.55C1.14177 0 0 1.14177 0 2.55V26.35C0 27.7582 1.14177 28.9 2.55 28.9H5.95V51H45.05V39.1H43.35V49.3ZM34.85 6.30195L42.148 13.6H34.85V6.30195ZM1.7 26.35V2.55C1.7 2.08059 2.08059 1.7 2.55 1.7H21.25C21.7194 1.7 22.1 2.08059 22.1 2.55V26.35C22.1 26.8194 21.7194 27.2 21.25 27.2H2.55C2.08059 27.2 1.7 26.8194 1.7 26.35Z" fill="#F19264"/>
<path d="M27.2002 21.25H28.9002V22.95H27.2002V21.25Z" fill="#F19264"/>
<path d="M30.6001 21.25H40.8001V22.95H30.6001V21.25Z" fill="#F19264"/>
<path d="M27.2002 17.85H28.9002V19.55H27.2002V17.85Z" fill="#F19264"/>
<path d="M30.6001 17.85H40.8001V19.55H30.6001V17.85Z" fill="#F19264"/>
<path d="M27.2002 24.65H28.9002V26.35H27.2002V24.65Z" fill="#F19264"/>
<path d="M30.6001 24.65H40.8001V26.35H30.6001V24.65Z" fill="#F19264"/>
<path d="M27.2002 28.05H28.9002V29.75H27.2002V28.05Z" fill="#F19264"/>
<path d="M30.6001 28.05H40.8001V29.75H30.6001V28.05Z" fill="#F19264"/>
<path d="M21.2498 2.54999H2.5498V8.49999H21.2498V2.54999ZM19.5498 6.79999H4.2498V4.24999H19.5498V6.79999Z" fill="#F19264"/>
<path d="M6.7999 9.35001H5.0999C4.16108 9.35001 3.3999 10.1112 3.3999 11.05V12.75C3.3999 13.6888 4.16108 14.45 5.0999 14.45H6.7999C7.73872 14.45 8.4999 13.6888 8.4999 12.75V11.05C8.4999 10.1112 7.73872 9.35001 6.7999 9.35001ZM5.0999 12.75V11.05H6.7999V12.75H5.0999Z" fill="#F19264"/>
<path d="M12.7501 9.35001H11.0501C10.1113 9.35001 9.3501 10.1112 9.3501 11.05V12.75C9.3501 13.6888 10.1113 14.45 11.0501 14.45H12.7501C13.6889 14.45 14.4501 13.6888 14.4501 12.75V11.05C14.4501 10.1112 13.6889 9.35001 12.7501 9.35001ZM11.0501 12.75V11.05H12.7501V12.75H11.0501Z" fill="#F19264"/>
<path d="M18.6998 9.35001H16.9998C16.061 9.35001 15.2998 10.1112 15.2998 11.05V12.75C15.2998 13.6888 16.061 14.45 16.9998 14.45H18.6998C19.6386 14.45 20.3998 13.6888 20.3998 12.75V11.05C20.3998 10.1112 19.6386 9.35001 18.6998 9.35001ZM16.9998 12.75V11.05H18.6998V12.75H16.9998Z" fill="#F19264"/>
<path d="M6.7999 15.3H5.0999C4.16108 15.3 3.3999 16.0612 3.3999 17V18.7C3.3999 19.6388 4.16108 20.4 5.0999 20.4H6.7999C7.73872 20.4 8.4999 19.6388 8.4999 18.7V17C8.4999 16.0612 7.73872 15.3 6.7999 15.3ZM5.0999 18.7V17H6.7999V18.7H5.0999Z" fill="#F19264"/>
<path d="M12.7501 15.3H11.0501C10.1113 15.3 9.3501 16.0612 9.3501 17V18.7C9.3501 19.6388 10.1113 20.4 11.0501 20.4H12.7501C13.6889 20.4 14.4501 19.6388 14.4501 18.7V17C14.4501 16.0612 13.6889 15.3 12.7501 15.3ZM11.0501 18.7V17H12.7501V18.7H11.0501Z" fill="#F19264"/>
<path d="M18.6998 15.3H16.9998C16.061 15.3 15.2998 16.0612 15.2998 17V18.7C15.2998 19.6388 16.061 20.4 16.9998 20.4H18.6998C19.6386 20.4 20.3998 19.6388 20.3998 18.7V17C20.3998 16.0612 19.6386 15.3 18.6998 15.3ZM16.9998 18.7V17H18.6998V18.7H16.9998Z" fill="#F19264"/>
<path d="M6.7999 21.25H5.0999C4.16108 21.25 3.3999 22.0112 3.3999 22.95V24.65C3.3999 25.5888 4.16108 26.35 5.0999 26.35H6.7999C7.73872 26.35 8.4999 25.5888 8.4999 24.65V22.95C8.4999 22.0112 7.73872 21.25 6.7999 21.25ZM5.0999 24.65V22.95H6.7999V24.65H5.0999Z" fill="#F19264"/>
<path d="M12.7501 21.25H11.0501C10.1113 21.25 9.3501 22.0112 9.3501 22.95V24.65C9.3501 25.5888 10.1113 26.35 11.0501 26.35H12.7501C13.6889 26.35 14.4501 25.5888 14.4501 24.65V22.95C14.4501 22.0112 13.6889 21.25 12.7501 21.25ZM11.0501 24.65V22.95H12.7501V24.65H11.0501Z" fill="#F19264"/>
<path d="M18.6998 21.25H16.9998C16.061 21.25 15.2998 22.0112 15.2998 22.95V24.65C15.2998 25.5888 16.061 26.35 16.9998 26.35H18.6998C19.6386 26.35 20.3998 25.5888 20.3998 24.65V22.95C20.3998 22.0112 19.6386 21.25 18.6998 21.25ZM16.9998 24.65V22.95H18.6998V24.65H16.9998Z" fill="#F19264"/>
<path d="M50.228 27.122C49.2191 26.1587 47.6316 26.1587 46.6226 27.122L32.051 41.6932C31.9804 41.7646 31.9227 41.8476 31.8808 41.9389L29.8289 46.3947C29.6807 46.7176 29.7492 47.0991 30.0007 47.3502C30.2518 47.6017 30.6332 47.6702 30.9561 47.522L35.412 45.47C35.5033 45.4281 35.5863 45.3708 35.6577 45.2999L50.228 30.7283C51.2241 29.7326 51.2241 28.1177 50.228 27.122ZM34.562 43.9892L32.3349 45.0151L33.3608 42.788L44.2253 31.9227L45.4273 33.1247L34.562 43.9892ZM46.6317 31.919L45.4298 30.7175L46.0249 30.1223L47.2269 31.3243L46.6317 31.919ZM49.029 29.5222L48.428 30.1231L47.2261 28.9212L47.8279 28.3202C48.1636 27.999 48.6928 27.999 49.029 28.3202C49.3606 28.6522 49.3606 29.1901 49.029 29.5222Z" fill="#F19264"/>
</svg>
