<svg width="51" height="51" viewBox="0 0 51 51" fill="none" xmlns="http://www.w3.org/2000/svg">
<path d="M46.62 31.5724H19.3571C18.9625 31.5719 18.5843 31.4149 18.3053 31.1358C18.0264 30.8567 17.8695 30.4784 17.8691 30.0838V19.4227C17.8691 19.2399 17.9418 19.0646 18.071 18.9354C18.2002 18.8062 18.3755 18.7335 18.5583 18.7335C18.7411 18.7335 18.9164 18.8062 19.0457 18.9354C19.1749 19.0646 19.2475 19.2399 19.2475 19.4227V30.0838C19.2473 30.0983 19.25 30.1126 19.2555 30.126C19.2609 30.1395 19.269 30.1517 19.2792 30.1619C19.2894 30.1722 19.3015 30.1803 19.3149 30.1858C19.3283 30.1914 19.3426 30.1942 19.3571 30.1941H46.62C46.6346 30.1942 46.649 30.1915 46.6625 30.186C46.6759 30.1806 46.6882 30.1725 46.6984 30.1622C46.7087 30.1519 46.7168 30.1397 46.7223 30.1262C46.7278 30.1127 46.7305 30.0983 46.7303 30.0838V11.3199H19.2475V15.3C19.2475 15.4828 19.1749 15.6581 19.0457 15.7873C18.9164 15.9166 18.7411 15.9892 18.5583 15.9892C18.3755 15.9892 18.2002 15.9166 18.071 15.7873C17.9418 15.6581 17.8691 15.4828 17.8691 15.3V10.6307C17.8691 10.448 17.9418 10.2727 18.071 10.1434C18.2002 10.0142 18.3755 9.94156 18.5583 9.94156H47.4161C47.5989 9.94156 47.7741 10.0142 47.9034 10.1434C48.0326 10.2727 48.1053 10.448 48.1053 10.6307V30.0838C48.1049 30.4779 47.9484 30.8558 47.6701 31.1348C47.3917 31.4138 47.0142 31.5712 46.62 31.5724Z" fill="#8AC99E"/>
<path d="M10.1998 13.8038C9.25715 13.8037 8.33567 13.524 7.55193 13.0002C6.76818 12.4763 6.15736 11.7319 5.79671 10.8609C5.43606 9.98996 5.34176 9.03161 5.52575 8.10706C5.70975 7.18251 6.16376 6.33328 6.83038 5.66675C7.49701 5.00022 8.34631 4.54633 9.27088 4.36247C10.1955 4.17861 11.1538 4.27305 12.0247 4.63383C12.8956 4.99461 13.64 5.60553 14.1637 6.38935C14.6874 7.17317 14.9669 8.09469 14.9669 9.03737C14.9655 10.3012 14.4627 11.5128 13.569 12.4064C12.6753 13.3 11.4636 13.8025 10.1998 13.8038ZM10.1998 5.65138C9.52976 5.65152 8.87478 5.85034 8.31771 6.22271C7.76064 6.59507 7.32649 7.12426 7.07017 7.74336C6.81384 8.36246 6.74684 9.04366 6.87765 9.70083C7.00845 10.358 7.33119 10.9616 7.80504 11.4354C8.2789 11.9092 8.88259 12.2318 9.53979 12.3624C10.197 12.4931 10.8782 12.426 11.4972 12.1695C12.1163 11.9131 12.6454 11.4788 13.0176 10.9217C13.3899 10.3645 13.5886 9.7095 13.5886 9.03943C13.5877 8.14103 13.2303 7.27969 12.595 6.64448C11.9596 6.00928 11.0982 5.65211 10.1998 5.65138Z" fill="#8AC99E"/>
<path d="M7.89376 46.727C7.09241 46.7289 6.32306 46.4127 5.75455 45.848C5.18603 45.2832 4.86479 44.5159 4.86133 43.7146V29.0776C4.86133 28.8948 4.93394 28.7195 5.06319 28.5903C5.19244 28.461 5.36773 28.3884 5.55052 28.3884C5.7333 28.3884 5.9086 28.461 6.03785 28.5903C6.1671 28.7195 6.23971 28.8948 6.23971 29.0776V43.716C6.2413 43.9404 6.28871 44.1621 6.37904 44.3675C6.46937 44.573 6.6007 44.7578 6.765 44.9107C6.92929 45.0635 7.12308 45.1812 7.33448 45.2566C7.54588 45.3319 7.77044 45.3632 7.99438 45.3487C8.22653 45.3307 8.45187 45.2617 8.65436 45.1468C8.85686 45.0318 9.03155 44.8737 9.166 44.6836C9.33782 44.4246 9.43706 44.1242 9.4534 43.8138C9.48992 43.4141 9.50922 43.0075 9.50922 42.605V31.5449C9.50922 31.3621 9.58183 31.1868 9.71108 31.0576C9.84033 30.9283 10.0156 30.8557 10.1984 30.8557C10.3812 30.8557 10.5565 30.9283 10.6857 31.0576C10.815 31.1868 10.8876 31.3621 10.8876 31.5449V42.6043C10.8876 43.0488 10.8669 43.5003 10.8263 43.94C10.7889 44.4979 10.6004 45.0351 10.2811 45.4941C10.027 45.8491 9.69751 46.1435 9.31622 46.3562C8.93493 46.5689 8.5113 46.6946 8.07571 46.7243C8.01713 46.727 7.9551 46.727 7.89376 46.727Z" fill="#8AC99E"/>
<path d="M12.5074 46.727C12.4461 46.727 12.3841 46.727 12.3227 46.7215C11.8872 46.6919 11.4636 46.5663 11.0823 46.3537C10.701 46.1412 10.3715 45.8469 10.1173 45.492C9.79773 45.0331 9.60904 44.4958 9.5715 43.9378C9.53084 43.4947 9.51016 43.046 9.51016 42.6029V31.5448C9.51016 31.3621 9.58277 31.1868 9.71202 31.0575C9.84127 30.9283 10.0166 30.8557 10.1993 30.8557C10.3821 30.8557 10.5574 30.9283 10.6867 31.0575C10.8159 31.1868 10.8885 31.3621 10.8885 31.5448V42.6043C10.8885 43.0054 10.9071 43.412 10.9437 43.8131C10.9602 44.1236 11.0597 44.4239 11.2318 44.6829C11.3664 44.8733 11.5413 45.0318 11.7442 45.1469C11.9471 45.2619 12.1729 45.3308 12.4054 45.3486C12.6288 45.3623 12.8526 45.3303 13.0632 45.2547C13.2738 45.1791 13.4668 45.0614 13.6305 44.9088C13.7942 44.7561 13.925 44.5718 14.0151 44.3669C14.1052 44.1621 14.1527 43.9411 14.1546 43.7173V20.7101C14.1552 20.1862 14.3635 19.6838 14.7339 19.3133C15.1043 18.9427 15.6066 18.7342 16.1305 18.7335H22.7571C23.1221 18.7328 23.4721 18.5879 23.7309 18.3303C23.8571 18.2035 23.9569 18.0529 24.0247 17.8873C24.0925 17.7217 24.1268 17.5444 24.1258 17.3655C24.1264 17.1851 24.0915 17.0064 24.0231 16.8395C23.9546 16.6726 23.854 16.5208 23.7269 16.3928C23.5998 16.2648 23.4487 16.1631 23.2823 16.0935C23.1159 16.0239 22.9374 15.9877 22.7571 15.9871H6.38124C5.4199 15.988 4.49823 16.3704 3.81865 17.0504C3.13907 17.7304 2.75716 18.6523 2.7568 19.6136V29.3312C2.75898 29.6114 2.87223 29.8794 3.07171 30.0763C3.2712 30.2732 3.54062 30.383 3.8209 30.3815C3.95546 30.3856 4.0895 30.3629 4.21516 30.3146C4.34082 30.2663 4.45559 30.1934 4.55275 30.1002C4.64991 30.0071 4.72751 29.8954 4.78101 29.7719C4.83452 29.6484 4.86284 29.5154 4.86434 29.3808V20.7597C4.86434 20.5769 4.93695 20.4016 5.0662 20.2724C5.19544 20.1431 5.37074 20.0705 5.55353 20.0705C5.73631 20.0705 5.91161 20.1431 6.04086 20.2724C6.1701 20.4016 6.24271 20.5769 6.24271 20.7597V29.3808C6.24198 30.0117 5.991 30.6165 5.54485 31.0625C5.09869 31.5085 4.49381 31.7593 3.86294 31.7599C3.54003 31.7647 3.21934 31.7056 2.91937 31.5859C2.6194 31.4663 2.34607 31.2885 2.11512 31.0627C1.88418 30.8369 1.70019 30.5677 1.57375 30.2705C1.44731 29.9734 1.38093 29.6541 1.37842 29.3312V19.6136C1.37988 18.2872 1.90743 17.0156 2.84532 16.0777C3.78322 15.1398 5.05486 14.6122 6.38124 14.6108H22.7591C23.4886 14.6108 24.1882 14.9006 24.7041 15.4164C25.2199 15.9322 25.5097 16.6318 25.5097 17.3613C25.5097 18.0908 25.2199 18.7904 24.7041 19.3063C24.1882 19.8221 23.4886 20.1119 22.7591 20.1119H16.1326C15.974 20.1121 15.8221 20.1752 15.71 20.2873C15.598 20.3995 15.5351 20.5516 15.5351 20.7101V43.7166C15.5307 44.5167 15.2098 45.2824 14.6424 45.8465C14.0751 46.4106 13.3075 46.7272 12.5074 46.727Z" fill="#8AC99E"/>
<path d="M48.9328 11.3199H17.0447C16.8619 11.3199 16.6866 11.2473 16.5573 11.1181C16.4281 10.9888 16.3555 10.8135 16.3555 10.6307C16.3555 10.448 16.4281 10.2727 16.5573 10.1434C16.6866 10.0142 16.8619 9.94156 17.0447 9.94156H48.9328C49.1155 9.94156 49.2908 10.0142 49.4201 10.1434C49.5493 10.2727 49.6219 10.448 49.6219 10.6307C49.6219 10.8135 49.5493 10.9888 49.4201 11.1181C49.2908 11.2473 49.1155 11.3199 48.9328 11.3199Z" fill="#8AC99E"/>
<path d="M48.9328 31.5725H17.0447C16.8619 31.5725 16.6866 31.4999 16.5573 31.3706C16.4281 31.2414 16.3555 31.0661 16.3555 30.8833C16.3555 30.7005 16.4281 30.5252 16.5573 30.396C16.6866 30.2667 16.8619 30.1941 17.0447 30.1941H48.9328C49.1155 30.1941 49.2908 30.2667 49.4201 30.396C49.5493 30.5252 49.6219 30.7005 49.6219 30.8833C49.6219 31.0661 49.5493 31.2414 49.4201 31.3706C49.2908 31.4999 49.1155 31.5725 48.9328 31.5725Z" fill="#8AC99E"/>
<path d="M44.7347 45.9255H40.5244C40.4254 45.9256 40.3276 45.9043 40.2376 45.8632C40.1476 45.822 40.0674 45.7619 40.0027 45.6871L32.9888 37.5608L25.9715 45.6871C25.9068 45.7619 25.8267 45.822 25.7366 45.8632C25.6466 45.9043 25.5488 45.9256 25.4498 45.9255H21.2457C21.1133 45.9255 20.9837 45.8873 20.8724 45.8156C20.7611 45.7438 20.6728 45.6415 20.6181 45.5209C20.5634 45.4002 20.5447 45.2664 20.5641 45.1354C20.5835 45.0044 20.6402 44.8818 20.7275 44.7822L29.5381 34.72V30.8833C29.5381 30.7005 29.6107 30.5252 29.7399 30.396C29.8692 30.2667 30.0445 30.1941 30.2273 30.1941H35.7566C35.9394 30.1941 36.1147 30.2667 36.2439 30.396C36.3732 30.5252 36.4458 30.7005 36.4458 30.8833V34.6738L45.2543 44.7828C45.3413 44.8826 45.3976 45.0052 45.4167 45.1361C45.4358 45.267 45.4169 45.4007 45.3621 45.5211C45.3073 45.6415 45.219 45.7436 45.1077 45.8152C44.9965 45.8868 44.867 45.9249 44.7347 45.9248V45.9255ZM40.8428 44.5471H43.2192L35.2342 35.3878C35.1249 35.2623 35.0646 35.1015 35.0647 34.935V31.5725H30.913V34.9764C30.913 35.1435 30.8522 35.3049 30.7421 35.4306L22.7619 44.5471H25.1341L32.4671 36.0556C32.5338 35.984 32.6146 35.9268 32.7043 35.8877C32.7941 35.8486 32.8909 35.8285 32.9888 35.8285C33.0867 35.8285 33.1836 35.8486 33.2734 35.8877C33.3631 35.9268 33.4439 35.984 33.5105 36.0556L40.8428 44.5471Z" fill="#8AC99E"/>
</svg>
