<svg width="51" height="51" viewBox="0 0 51 51" fill="none" xmlns="http://www.w3.org/2000/svg">
<path d="M41.2402 14.8169C41.7903 14.8169 42.2363 14.3709 42.2363 13.8208V2.98828C42.2363 1.34054 40.8958 0 39.248 0H2.99023C1.3425 0 0.00195312 1.34054 0.00195312 2.98828V48.0117C0.00195312 49.6595 1.3425 51 2.99023 51H39.248C40.8958 51 42.2363 49.6595 42.2363 48.0117V40.6733C42.2363 40.1232 41.7903 39.6772 41.2402 39.6772C40.6902 39.6772 40.2441 40.1232 40.2441 40.6733V48.0117C40.2441 48.561 39.7973 49.0078 39.248 49.0078H2.99023C2.44099 49.0078 1.99414 48.561 1.99414 48.0117V2.98828C1.99414 2.43904 2.44099 1.99219 2.99023 1.99219H39.248C39.7973 1.99219 40.2441 2.43904 40.2441 2.98828V13.8208C40.2441 14.3709 40.6902 14.8169 41.2402 14.8169Z" fill="#8AC99E"/>
<path d="M21.1182 5.37891C16.0651 5.37891 11.9541 9.48988 11.9541 14.543C11.9541 17.1644 13.0608 19.5319 14.831 21.2037C14.8642 21.2392 14.8994 21.2728 14.938 21.3034C16.5687 22.7954 18.7389 23.7069 21.1181 23.7069C23.4972 23.7069 25.6674 22.7953 27.2981 21.3034C27.3367 21.2728 27.3719 21.2391 27.4051 21.2037C29.1756 19.5319 30.2822 17.1644 30.2822 14.543C30.2822 9.48988 26.1712 5.37891 21.1182 5.37891ZM21.1182 21.7148C19.4916 21.7148 17.9905 21.1698 16.786 20.2538C17.6615 18.7014 19.2952 17.7305 21.1182 17.7305C22.9411 17.7305 24.5748 18.7014 25.4503 20.2538C24.2457 21.1698 22.7447 21.7148 21.1182 21.7148ZM19.5244 14.1445V13.4971C19.5244 12.6183 20.2394 11.9033 21.1182 11.9033C21.9969 11.9033 22.7119 12.6183 22.7119 13.4971V14.1445C22.7119 15.0233 21.9969 15.7383 21.1182 15.7383C20.2394 15.7383 19.5244 15.0233 19.5244 14.1445ZM26.8895 18.7946C26.1549 17.7051 25.1368 16.8577 23.9547 16.3345C24.4239 15.7282 24.7041 14.9687 24.7041 14.1445V13.4971C24.7041 11.5197 23.0955 9.91113 21.1182 9.91113C19.1408 9.91113 17.5322 11.5197 17.5322 13.4971V14.1445C17.5322 14.9687 17.8124 15.7282 18.2816 16.3345C17.0995 16.8577 16.0814 17.7051 15.3468 18.7946C14.4673 17.604 13.9463 16.1334 13.9463 14.543C13.9463 10.5884 17.1636 7.37109 21.1182 7.37109C25.0727 7.37109 28.29 10.5884 28.29 14.543C28.29 16.1334 27.769 17.604 26.8895 18.7946Z" fill="#8AC99E"/>
<path d="M26.4971 43.6289H21.1182C20.5681 43.6289 20.1221 44.0749 20.1221 44.625C20.1221 45.1751 20.5681 45.6211 21.1182 45.6211H26.4971C27.0471 45.6211 27.4931 45.1751 27.4931 44.625C27.4931 44.0749 27.0471 43.6289 26.4971 43.6289Z" fill="#8AC99E"/>
<path d="M26.4971 38.0508H12.3525C11.8025 38.0508 11.3564 38.4967 11.3564 39.0469C11.3564 39.597 11.8025 40.043 12.3525 40.043H26.4971C27.0471 40.043 27.4931 39.597 27.4931 39.0469C27.4931 38.4967 27.0471 38.0508 26.4971 38.0508Z" fill="#8AC99E"/>
<path d="M26.4971 32.4727H12.3525C11.8025 32.4727 11.3564 32.9186 11.3564 33.4688C11.3564 34.0189 11.8025 34.4648 12.3525 34.4648H26.4971C27.0471 34.4648 27.4931 34.0189 27.4931 33.4688C27.4931 32.9186 27.0471 32.4727 26.4971 32.4727Z" fill="#8AC99E"/>
<path d="M8.80181 27.1864C8.61664 27.0011 8.35965 26.8945 8.09668 26.8945C7.83461 26.8945 7.57762 27.0011 7.39244 27.1864C7.20717 27.3717 7.10059 27.6287 7.10059 27.8906C7.10059 28.1526 7.20707 28.4096 7.39244 28.5949C7.57871 28.7801 7.83461 28.8867 8.09668 28.8867C8.35965 28.8867 8.61564 28.7801 8.80181 28.5949C8.98709 28.4096 9.09377 28.1526 9.09377 27.8906C9.09377 27.6287 8.98719 27.3717 8.80181 27.1864Z" fill="#8AC99E"/>
<path d="M8.80181 32.7645C8.61564 32.5792 8.35965 32.4727 8.09668 32.4727C7.83461 32.4727 7.57871 32.5792 7.39244 32.7645C7.20717 32.9498 7.10059 33.2068 7.10059 33.4688C7.10059 33.7307 7.20707 33.9877 7.39244 34.173C7.57871 34.3583 7.83461 34.4648 8.09668 34.4648C8.35965 34.4648 8.61564 34.3583 8.80181 34.173C8.98709 33.9877 9.09377 33.7307 9.09377 33.4688C9.09377 33.2068 8.98719 32.9498 8.80181 32.7645Z" fill="#8AC99E"/>
<path d="M8.80181 38.3426C8.61564 38.1574 8.35965 38.0508 8.09668 38.0508C7.83461 38.0508 7.57871 38.1574 7.39244 38.3426C7.20717 38.5279 7.10059 38.7849 7.10059 39.0469C7.10059 39.3088 7.20707 39.5658 7.39244 39.7511C7.57762 39.9364 7.83461 40.043 8.09668 40.043C8.35965 40.043 8.61664 39.9364 8.80181 39.7511C8.98709 39.5658 9.09377 39.3088 9.09377 39.0469C9.09377 38.7849 8.98719 38.5279 8.80181 38.3426Z" fill="#8AC99E"/>
<path d="M26.4971 26.8945H12.3525C11.8025 26.8945 11.3564 27.3405 11.3564 27.8906C11.3564 28.4408 11.8025 28.8867 12.3525 28.8867H26.4971C27.0471 28.8867 27.4931 28.4408 27.4931 27.8906C27.4931 27.3405 27.0471 26.8945 26.4971 26.8945Z" fill="#8AC99E"/>
<path d="M48.9083 12.9811C47.9406 12.4224 46.8132 12.274 45.7337 12.5631C44.6543 12.8524 43.752 13.5447 43.1934 14.5124L30.6584 36.2236C30.5897 36.3426 30.5463 36.4746 30.5311 36.6111L29.6487 44.5145C29.6049 44.9078 29.7979 45.2898 30.1406 45.4877C30.2953 45.577 30.4671 45.6212 30.6386 45.6212C30.8469 45.6212 31.0545 45.556 31.2293 45.4272L37.6326 40.7113C37.7433 40.6298 37.8359 40.5263 37.9046 40.4072L50.4395 18.6961C51.593 16.6983 50.9061 14.1346 48.9083 12.9811ZM31.8812 42.4728L32.342 38.3458L35.2249 40.0103L31.8812 42.4728ZM36.6774 38.5484L32.8818 36.357L42.9408 18.9344L46.7364 21.1258L36.6774 38.5484ZM48.7143 17.6999L47.7324 19.4005L43.9368 17.2091L44.9186 15.5085C45.2113 15.0016 45.6838 14.639 46.2492 14.4875C46.8148 14.3359 47.4053 14.4138 47.9121 14.7064C48.419 14.9991 48.7816 15.4716 48.9331 16.037C49.0846 16.6024 49.0069 17.193 48.7143 17.6999Z" fill="#8AC99E"/>
</svg>
