<svg width="17" height="17" viewBox="0 0 17 17" fill="none" xmlns="http://www.w3.org/2000/svg">
<g clip-path="url(#clip0)">
<path d="M16.8962 8.24971L11.5837 2.9372C11.4454 2.79885 11.2213 2.79885 11.0829 2.9372C10.9446 3.07556 10.9446 3.29968 11.0829 3.43801L15.7909 8.14595H0.354178C0.158412 8.14595 0 8.30436 0 8.50012C0 8.69589 0.158412 8.8543 0.354178 8.8543H15.7909L11.0829 13.5622C10.9446 13.7006 10.9446 13.9247 11.0829 14.063C11.1521 14.1322 11.2427 14.1668 11.3334 14.1668C11.424 14.1668 11.5146 14.1322 11.5838 14.063L16.8963 8.75051C17.0346 8.61218 17.0346 8.38806 16.8962 8.24971Z" fill="white"/>
</g>
<defs>
<clipPath id="clip0">
<rect width="17" height="17" fill="white"/>
</clipPath>
</defs>
</svg>
